<svg width="29" height="29" viewBox="0 0 29 29" fill="none" xmlns="http://www.w3.org/2000/svg">
<path d="M19.2556 25.7283C18.9422 25.7283 18.6416 25.6054 18.4199 25.3866C18.1983 25.1678 18.0738 24.8711 18.0738 24.5617V21.5283C18.1105 21.1794 18.0727 20.8268 17.9627 20.4932C17.8528 20.1596 17.6732 19.8525 17.4356 19.5917C17.2884 19.4341 17.1881 19.2396 17.1455 19.0295C17.103 18.8194 17.1198 18.6018 17.1943 18.4005C17.2688 18.1993 17.398 18.0221 17.5677 17.8886C17.7374 17.755 17.9411 17.6701 18.1565 17.6433C21.0402 17.305 23.6995 16.395 23.6995 11.46C23.7004 10.5384 23.4248 9.6372 22.9076 8.86999C22.4303 8.16372 22.2561 7.2995 22.423 6.46665C22.5296 5.92336 22.5296 5.36495 22.423 4.82165C21.5381 5.11703 20.7048 5.54601 19.9529 6.09332C19.8108 6.19297 19.648 6.26034 19.4764 6.29059C19.3048 6.32085 19.1285 6.31324 18.9602 6.26832C16.8273 5.67339 14.5691 5.67339 12.4363 6.26832C12.2679 6.31324 12.0916 6.32085 11.92 6.29059C11.7484 6.26034 11.5856 6.19297 11.4435 6.09332C10.687 5.53967 9.84493 5.11025 8.94974 4.82165C8.83735 5.36437 8.83735 5.92393 8.94974 6.46665C9.10467 7.30998 8.92252 8.17976 8.44154 8.89332C7.92656 9.66591 7.65134 10.5701 7.64969 11.495C7.64969 16.0333 9.8716 17.2467 13.2045 17.6667C13.4226 17.6934 13.6288 17.7796 13.8 17.9156C13.9712 18.0516 14.1006 18.2321 14.1736 18.4367C14.2423 18.6352 14.2555 18.8483 14.2119 19.0536C14.1682 19.259 14.0692 19.4488 13.9254 19.6033C13.6955 19.8459 13.5191 20.1328 13.4072 20.4461C13.2953 20.7593 13.2504 21.0921 13.2754 21.4233V24.5617C13.2754 24.8711 13.1509 25.1678 12.9292 25.3866C12.7076 25.6054 12.407 25.7283 12.0935 25.7283C11.7801 25.7283 11.4794 25.6054 11.2578 25.3866C11.0362 25.1678 10.9116 24.8711 10.9116 24.5617V23.8967C9.7503 24.0285 8.57395 23.8749 7.48728 23.4495C6.40062 23.024 5.43735 22.34 4.6832 21.4583C4.29555 21.0342 3.83046 20.6859 3.31224 20.4317C3.16169 20.3933 3.02026 20.3262 2.89601 20.2339C2.77177 20.1416 2.66716 20.0261 2.58814 19.894C2.50912 19.7618 2.45725 19.6155 2.43549 19.4636C2.41372 19.3116 2.42249 19.1569 2.46129 19.0083C2.50009 18.8597 2.56817 18.7201 2.66163 18.5975C2.75509 18.4748 2.8721 18.3715 3.00599 18.2935C3.13989 18.2155 3.28803 18.1643 3.44197 18.1428C3.5959 18.1214 3.75262 18.13 3.90317 18.1683C4.81232 18.4953 5.62468 19.0406 6.26691 19.755C7.44877 20.9216 8.63064 21.9483 10.8762 21.5283C10.8367 20.9019 10.9293 20.2743 11.148 19.685C8.71337 19.0783 5.23868 17.3517 5.23868 11.5183C5.23557 10.1366 5.64679 8.78479 6.42055 7.63332C6.56427 7.42076 6.61931 7.16163 6.57419 6.90999C6.33537 5.65066 6.47082 4.35001 6.96421 3.16499C7.03125 3.00698 7.13271 2.86548 7.2614 2.75055C7.39008 2.63562 7.54283 2.55007 7.70878 2.49999C8.11062 2.38332 9.5525 2.14999 12.2826 3.89999C14.4927 3.37499 16.7974 3.37499 19.0074 3.89999C21.7376 2.14999 23.1794 2.37165 23.5694 2.49999C23.7354 2.55007 23.8881 2.63562 24.0168 2.75055C24.1455 2.86548 24.247 3.00698 24.314 3.16499C24.8084 4.35386 24.9438 5.65851 24.704 6.92165C24.6799 7.03546 24.6789 7.15289 24.7012 7.26707C24.7235 7.38125 24.7687 7.4899 24.834 7.58665C25.61 8.74143 26.0214 10.0976 26.0159 11.4833C26.0159 17.3983 22.5649 19.1133 20.1066 19.65C20.3231 20.276 20.4115 20.9383 20.3666 21.5983V24.5617C20.3671 24.8593 20.2524 25.1459 20.0459 25.3628C19.8393 25.5797 19.5566 25.7105 19.2556 25.7283Z" fill="#231F20"/>
</svg>
