<svg width="28" height="28" viewBox="0 0 28 28" fill="none" xmlns="http://www.w3.org/2000/svg">
<path d="M23.3333 25.6668H21.385C20.7662 25.6668 20.1727 25.421 19.7351 24.9834C19.2975 24.5458 19.0517 23.9523 19.0517 23.3335V17.0685C19.0621 16.8228 18.9878 16.5809 18.8413 16.3834C18.6948 16.1859 18.4848 16.0447 18.2467 15.9835C18.1081 15.9624 17.9666 15.9712 17.8318 16.0095C17.6969 16.0477 17.5719 16.1144 17.465 16.2051C17.355 16.2985 17.2667 16.4147 17.2063 16.5456C17.1458 16.6766 17.1147 16.8192 17.115 16.9635V23.3335C17.115 23.9523 16.8692 24.5458 16.4316 24.9834C15.994 25.421 15.4005 25.6668 14.7817 25.6668H12.8333C12.2145 25.6668 11.621 25.421 11.1834 24.9834C10.7458 24.5458 10.5 23.9523 10.5 23.3335V16.9635C10.5 15.9676 10.6961 14.9815 11.0772 14.0614C11.4583 13.1414 12.0169 12.3054 12.7211 11.6012C13.4253 10.8971 14.2613 10.3385 15.1813 9.95737C16.1014 9.57628 17.0875 9.38013 18.0833 9.38013C19.0792 9.38013 20.0653 9.57628 20.9853 9.95737C21.9054 10.3385 22.7414 10.8971 23.4456 11.6012C24.1497 12.3054 24.7083 13.1414 25.0894 14.0614C25.4705 14.9815 25.6667 15.9676 25.6667 16.9635V23.3335C25.6667 23.9523 25.4208 24.5458 24.9832 24.9834C24.5457 25.421 23.9522 25.6668 23.3333 25.6668ZM18.0833 13.6385C18.2659 13.6269 18.4491 13.6269 18.6317 13.6385C19.4149 13.7891 20.1201 14.2108 20.6236 14.8294C21.1271 15.4481 21.3966 16.2243 21.385 17.0218V23.3335H23.3333V16.9635C23.3333 15.5711 22.7802 14.2357 21.7956 13.2511C20.8111 12.2666 19.4757 11.7135 18.0833 11.7135C16.6909 11.7135 15.3556 12.2666 14.371 13.2511C13.3865 14.2357 12.8333 15.5711 12.8333 16.9635V23.3335H14.7817V16.9635C14.7816 16.0856 15.1288 15.2434 15.7473 14.6205C16.3658 13.9976 17.2055 13.6446 18.0833 13.6385Z" fill="#231F20"/>
<path d="M7.00016 25.6666H4.66683C4.04799 25.6666 3.4545 25.4208 3.01691 24.9832C2.57933 24.5456 2.3335 23.9521 2.3335 23.3333V11.6666C2.3335 11.0477 2.57933 10.4543 3.01691 10.0167C3.4545 9.57909 4.04799 9.33325 4.66683 9.33325H7.00016C7.619 9.33325 8.21249 9.57909 8.65008 10.0167C9.08766 10.4543 9.3335 11.0477 9.3335 11.6666V23.3333C9.3335 23.9521 9.08766 24.5456 8.65008 24.9832C8.21249 25.4208 7.619 25.6666 7.00016 25.6666ZM4.66683 11.6666V23.3333H7.00016V11.6666H4.66683Z" fill="#231F20"/>
<path d="M5.8335 8.16675C5.14126 8.16675 4.46457 7.96148 3.889 7.57689C3.31343 7.19231 2.86483 6.64568 2.59992 6.00614C2.33501 5.3666 2.2657 4.66287 2.40075 3.98393C2.5358 3.305 2.86914 2.68136 3.35862 2.19188C3.84811 1.70239 4.47175 1.36905 5.15068 1.234C5.82962 1.09895 6.53335 1.16826 7.17289 1.43317C7.81243 1.69808 8.35906 2.14668 8.74364 2.72225C9.12823 3.29783 9.3335 3.97452 9.3335 4.66675C9.3335 5.59501 8.96475 6.48525 8.30837 7.14162C7.65199 7.798 6.76176 8.16675 5.8335 8.16675ZM5.8335 3.50008C5.60275 3.50008 5.37719 3.56851 5.18533 3.6967C4.99348 3.8249 4.84394 4.00711 4.75564 4.22029C4.66734 4.43347 4.64423 4.66804 4.68925 4.89436C4.73426 5.12067 4.84538 5.32855 5.00854 5.49171C5.1717 5.65487 5.37958 5.76598 5.60589 5.811C5.8322 5.85602 6.06678 5.83291 6.27996 5.74461C6.49314 5.65631 6.67535 5.50677 6.80355 5.31492C6.93174 5.12306 7.00016 4.89749 7.00016 4.66675C7.00016 4.35733 6.87725 4.06058 6.65846 3.84179C6.43966 3.623 6.14292 3.50008 5.8335 3.50008Z" fill="#231F20"/>
</svg>
