<svg width="32" height="40" viewBox="0 0 32 40" fill="none" xmlns="http://www.w3.org/2000/svg">
<rect x="0.5" y="3.5" width="31" height="31" rx="1.5" fill="white" stroke="black"/>
<path d="M17.92 30.32C16.064 30.32 14.3573 30.0427 12.8 29.488C11.264 28.9333 9.93067 28.1653 8.8 27.184C7.69067 26.1813 6.82667 25.0293 6.208 23.728C5.58933 22.4053 5.28 20.9867 5.28 19.472C5.28 17.8507 5.58933 16.3573 6.208 14.992C6.82667 13.6053 7.70133 12.4 8.832 11.376C9.96267 10.352 11.2853 9.56267 12.8 9.008C14.336 8.432 16 8.144 17.792 8.144C19.008 8.144 19.9573 8.24 20.64 8.432C21.344 8.60267 21.9307 8.79467 22.4 9.008C22.784 9.17867 23.1467 9.33867 23.488 9.488C23.8507 9.616 24.2667 9.68 24.736 9.68C24.9707 9.68 25.1733 9.66933 25.344 9.648C25.536 9.60533 25.7387 9.56267 25.952 9.52L26.08 9.616C25.8453 10.5333 25.792 11.4933 25.92 12.496C26.0693 13.4987 26.2507 14.5227 26.464 15.568H25.6C25.088 14.3307 24.4587 13.2427 23.712 12.304C22.9867 11.344 22.1227 10.5973 21.12 10.064C20.1387 9.53067 18.9867 9.264 17.664 9.264C16.2773 9.264 15.0187 9.68 13.888 10.512C12.7573 11.344 11.8507 12.528 11.168 14.064C10.5067 15.5787 10.176 17.3813 10.176 19.472C10.176 21.392 10.4853 23.088 11.104 24.56C11.744 26.032 12.6293 27.184 13.76 28.016C14.912 28.8267 16.256 29.232 17.792 29.232C18.7947 29.232 19.712 29.072 20.544 28.752C21.376 28.4107 22.1227 27.952 22.784 27.376C23.4667 26.7787 24.064 26.096 24.576 25.328C25.088 24.56 25.5147 23.728 25.856 22.832H26.848C26.5493 23.856 26.3147 24.9013 26.144 25.968C25.9733 27.0347 25.8773 28.0693 25.856 29.072H25.632C25.056 29.072 24.5013 29.136 23.968 29.264C23.456 29.3707 22.9547 29.488 22.464 29.616C21.8667 29.7867 21.216 29.9467 20.512 30.096C19.8293 30.2453 18.9653 30.32 17.92 30.32Z" fill="black"/>
</svg>