<svg width="34" height="34" viewBox="0 0 34 34" fill="none" xmlns="http://www.w3.org/2000/svg">
<path d="M19.88 33.48C17.096 33.48 14.536 33.064 12.2 32.232C9.896 31.4 7.896 30.248 6.2 28.776C4.536 27.272 3.24 25.544 2.312 23.592C1.384 21.608 0.92 19.48 0.92 17.208C0.92 14.776 1.384 12.536 2.312 10.488C3.24 8.408 4.552 6.6 6.248 5.064C7.944 3.528 9.928 2.344 12.2 1.512C14.504 0.647999 17 0.215999 19.688 0.215999C21.512 0.215999 22.936 0.359999 23.96 0.647999C25.016 0.903999 25.896 1.192 26.6 1.512C27.176 1.768 27.72 2.008 28.232 2.232C28.776 2.424 29.4 2.52 30.104 2.52C30.456 2.52 30.76 2.504 31.016 2.472C31.304 2.408 31.608 2.344 31.928 2.28L32.12 2.424C31.768 3.8 31.688 5.24 31.88 6.744C32.104 8.248 32.376 9.784 32.696 11.352H31.4C30.632 9.496 29.688 7.864 28.568 6.456C27.48 5.016 26.184 3.896 24.68 3.096C23.208 2.296 21.48 1.896 19.496 1.896C17.416 1.896 15.528 2.52 13.832 3.768C12.136 5.016 10.776 6.792 9.752 9.096C8.76 11.368 8.264 14.072 8.264 17.208C8.264 20.088 8.728 22.632 9.656 24.84C10.616 27.048 11.944 28.776 13.64 30.024C15.368 31.24 17.384 31.848 19.688 31.848C21.192 31.848 22.568 31.608 23.816 31.128C25.064 30.616 26.184 29.928 27.176 29.064C28.2 28.168 29.096 27.144 29.864 25.992C30.632 24.84 31.272 23.592 31.784 22.248H33.272C32.824 23.784 32.472 25.352 32.216 26.952C31.96 28.552 31.816 30.104 31.784 31.608H31.448C30.584 31.608 29.752 31.704 28.952 31.896C28.184 32.056 27.432 32.232 26.696 32.424C25.8 32.68 24.824 32.92 23.768 33.144C22.744 33.368 21.448 33.48 19.88 33.48Z" fill="black"/>
</svg>
